999
"DXF R12 Output" (www.mydxf.blogspot.com)
 0 
SECTION
 2 
HEADER
 9 
$ACADVER
 1 
AC1009
 9 
$EXTMIN
 10 
 0 
 20 
 0 
 9 
$EXTMAX
 10 
 8.5 
 20 
 11 
 0 
ENDSEC
 0 
SECTION
 2 
ENTITIES
0
LINE
8
Ebene 1
10
0.000000
20
124.178000
11
0.000000
21
0.000320
0
LINE
8
Ebene 1
10
0.000000
20
0.000320
11
124.178000
21
0.000320
0
LINE
8
Ebene 1
10
124.178000
20
0.000320
11
124.178000
21
124.178000
0
LINE
8
Ebene 1
10
124.178000
20
124.178000
11
0.000000
21
124.178000
0
LINE
8
Ebene 1
10
60.677700
20
122.767000
11
94.544400
21
122.767000
0
LINE
8
Ebene 1
10
94.544400
20
122.767000
11
94.544400
21
118.534000
0
LINE
8
Ebene 1
10
94.544400
20
118.534000
11
60.677700
21
118.534000
0
LINE
8
Ebene 1
10
60.677700
20
118.534000
11
60.677700
21
122.767000
0
LINE
8
Ebene 1
10
4.233280
20
119.945000
11
11.288800
21
119.945000
0
LINE
8
Ebene 1
10
11.288800
20
119.945000
11
11.288800
21
112.889000
0
LINE
8
Ebene 1
10
11.288800
20
112.889000
11
4.233280
21
112.889000
0
LINE
8
Ebene 1
10
4.233280
20
112.889000
11
4.233280
21
119.945000
0
LINE
8
Ebene 1
10
112.889280
20
119.945000
11
115.711000
21
124.178000
0
LINE
8
Ebene 1
10
115.711000
20
124.178000
11
115.711000
21
112.889000
0
LINE
8
Ebene 1
10
115.711000
20
112.889000
11
112.889000
21
112.889000
0
LINE
8
Ebene 1
10
112.889000
20
112.889000
11
112.889280
21
119.945000
0
LINE
8
Ebene 1
10
17.638800
20
106.912000
11
22.968100
21
106.912000
0
LINE
8
Ebene 1
10
22.968100
20
106.912000
11
22.968100
21
101.267000
0
LINE
8
Ebene 1
10
22.968100
20
101.267000
11
17.638800
21
101.267000
0
LINE
8
Ebene 1
10
17.638800
20
101.267000
11
17.638800
21
106.912000
0
LINE
8
Ebene 1
10
25.837420
20
106.912000
11
13.805400
21
124.178000
0
LINE
8
Ebene 1
10
13.805400
20
124.178000
11
13.805400
21
101.267000
0
LINE
8
Ebene 1
10
13.805400
20
101.267000
11
25.837400
21
101.267000
0
LINE
8
Ebene 1
10
25.837400
20
101.267000
11
25.837420
21
106.912000
0
LINE
8
Ebene 1
10
33.946790
20
106.912000
11
14.167500
21
124.178000
0
LINE
8
Ebene 1
10
14.167500
20
124.178000
11
14.167500
21
101.267000
0
LINE
8
Ebene 1
10
14.167500
20
101.267000
11
33.946800
21
101.267000
0
LINE
8
Ebene 1
10
33.946800
20
101.267000
11
33.946790
21
106.912000
0
LINE
8
Ebene 1
10
42.196890
20
106.912000
11
47.871900
21
124.178000
0
LINE
8
Ebene 1
10
47.871900
20
124.178000
11
47.871900
21
118.533000
0
LINE
8
Ebene 1
10
47.871900
20
118.533000
11
42.196900
21
118.533000
0
LINE
8
Ebene 1
10
42.196900
20
118.533000
11
42.196890
21
106.912000
0
LINE
8
Ebene 1
10
50.063920
20
106.912000
11
14.187500
21
124.178000
0
LINE
8
Ebene 1
10
14.187500
20
124.178000
11
14.187500
21
118.533000
0
LINE
8
Ebene 1
10
14.187500
20
118.533000
11
7.867030
21
118.533000
0
LINE
8
Ebene 1
10
7.867030
20
118.533000
11
50.063920
21
106.912000
0
LINE
8
Ebene 1
10
58.576440
20
106.912000
11
15.777200
21
124.178000
0
LINE
8
Ebene 1
10
15.777200
20
124.178000
11
15.777200
21
118.533000
0
LINE
8
Ebene 1
10
15.777200
20
118.533000
11
8.512520
21
118.533000
0
LINE
8
Ebene 1
10
8.512520
20
118.533000
11
58.576440
21
106.912000
0
LINE
8
Ebene 1
10
68.033140
20
106.912000
11
15.478500
21
124.178000
0
LINE
8
Ebene 1
10
15.478500
20
124.178000
11
15.478500
21
101.267000
0
LINE
8
Ebene 1
10
15.478500
20
101.267000
11
68.033100
21
101.267000
0
LINE
8
Ebene 1
10
68.033100
20
101.267000
11
68.033140
21
106.912000
0
LINE
8
Ebene 1
10
76.246970
20
106.912000
11
13.787600
21
124.178000
0
LINE
8
Ebene 1
10
13.787600
20
124.178000
11
13.787600
21
118.533000
0
LINE
8
Ebene 1
10
13.787600
20
118.533000
11
8.213830
21
118.533000
0
LINE
8
Ebene 1
10
8.213830
20
118.533000
11
76.246970
21
106.912000
0
LINE
8
Ebene 1
10
84.012780
20
107.617532
11
15.083600
21
124.884000
0
LINE
8
Ebene 1
10
15.083600
20
124.884000
11
15.083600
21
118.533000
0
LINE
8
Ebene 1
10
15.083600
20
118.533000
11
7.765810
21
118.533000
0
LINE
8
Ebene 1
10
7.765810
20
118.533000
11
84.012780
21
107.617532
0
LINE
8
Ebene 1
10
93.522570
20
106.912000
11
15.382300
21
123.472000
0
LINE
8
Ebene 1
10
15.382300
20
123.472000
11
15.382300
21
117.828000
0
LINE
8
Ebene 1
10
15.382300
20
117.828000
11
9.509790
21
117.828000
0
LINE
8
Ebene 1
10
9.509790
20
117.828000
11
93.522570
21
106.912000
0
LINE
8
Ebene 1
10
101.635190
20
106.912000
11
13.339600
21
124.178000
0
LINE
8
Ebene 1
10
13.339600
20
124.178000
11
13.339600
21
101.267000
0
LINE
8
Ebene 1
10
13.339600
20
101.267000
11
101.635000
21
101.267000
0
LINE
8
Ebene 1
10
101.635000
20
101.267000
11
101.635190
21
106.912000
0
LINE
8
Ebene 1
10
17.638800
20
97.536200
11
22.968100
21
97.536200
0
LINE
8
Ebene 1
10
22.968100
20
97.536200
11
22.968100
21
91.891800
0
LINE
8
Ebene 1
10
22.968100
20
91.891800
11
17.638800
21
91.891800
0
LINE
8
Ebene 1
10
17.638800
20
91.891800
11
17.638800
21
97.536200
0
LINE
8
Ebene 1
10
25.837420
20
97.536200
11
13.805400
21
124.178000
0
LINE
8
Ebene 1
10
13.805400
20
124.178000
11
13.805400
21
91.891800
0
LINE
8
Ebene 1
10
13.805400
20
91.891800
11
25.837400
21
91.891800
0
LINE
8
Ebene 1
10
25.837400
20
91.891800
11
25.837420
21
97.536200
0
LINE
8
Ebene 1
10
33.636240
20
97.536200
11
14.167500
21
124.178000
0
LINE
8
Ebene 1
10
14.167500
20
124.178000
11
14.167500
21
118.534000
0
LINE
8
Ebene 1
10
14.167500
20
118.534000
11
7.798820
21
118.534000
0
LINE
8
Ebene 1
10
7.798820
20
118.534000
11
33.636240
21
97.536200
0
LINE
8
Ebene 1
10
42.196890
20
97.536200
11
47.871900
21
124.178000
0
LINE
8
Ebene 1
10
47.871900
20
124.178000
11
47.871900
21
118.534000
0
LINE
8
Ebene 1
10
47.871900
20
118.534000
11
42.196900
21
118.534000
0
LINE
8
Ebene 1
10
42.196900
20
118.534000
11
42.196890
21
97.536200
0
LINE
8
Ebene 1
10
50.063920
20
97.536200
11
14.187500
21
124.178000
0
LINE
8
Ebene 1
10
14.187500
20
124.178000
11
14.187500
21
118.534000
0
LINE
8
Ebene 1
10
14.187500
20
118.534000
11
7.867030
21
118.534000
0
LINE
8
Ebene 1
10
7.867030
20
118.534000
11
50.063920
21
97.536200
0
LINE
8
Ebene 1
10
58.576440
20
97.536200
11
15.777200
21
124.178000
0
LINE
8
Ebene 1
10
15.777200
20
124.178000
11
15.777200
21
123.797000
0
LINE
8
Ebene 1
10
15.777200
20
123.797000
11
15.878400
21
123.797000
0
LINE
8
Ebene 1
10
15.878400
20
123.797000
11
15.878400
21
118.534000
0
LINE
8
Ebene 1
10
15.878400
20
118.534000
11
8.512520
21
118.534000
0
LINE
8
Ebene 1
10
8.512520
20
118.534000
11
58.576440
21
97.536200
0
LINE
8
Ebene 1
10
68.134360
20
97.536200
11
15.478500
21
124.178000
0
LINE
8
Ebene 1
10
15.478500
20
124.178000
11
15.478500
21
118.534000
0
LINE
8
Ebene 1
10
15.478500
20
118.534000
11
9.557920
21
118.534000
0
LINE
8
Ebene 1
10
9.557920
20
118.534000
11
68.134360
21
97.536200
0
LINE
8
Ebene 1
10
76.246980
20
97.536200
11
13.686400
21
124.178000
0
LINE
8
Ebene 1
10
13.686400
20
124.178000
11
13.686400
21
118.534000
0
LINE
8
Ebene 1
10
13.686400
20
118.534000
11
8.112620
21
118.534000
0
LINE
8
Ebene 1
10
8.112620
20
118.534000
11
76.246980
21
97.536200
0
LINE
8
Ebene 1
10
84.605370
20
97.536200
11
14.829500
21
124.178000
0
LINE
8
Ebene 1
10
14.829500
20
124.178000
11
14.829500
21
118.534000
0
LINE
8
Ebene 1
10
14.829500
20
118.534000
11
8.358390
21
118.534000
0
LINE
8
Ebene 1
10
8.358390
20
118.534000
11
84.605370
21
97.536200
0
LINE
8
Ebene 1
10
93.691780
20
97.536200
11
98.745800
21
124.178000
0
LINE
8
Ebene 1
10
98.745800
20
124.178000
11
98.745800
21
118.534000
0
LINE
8
Ebene 1
10
98.745800
20
118.534000
11
93.691800
21
118.534000
0
LINE
8
Ebene 1
10
93.691800
20
118.534000
11
93.691780
21
97.536200
0
LINE
8
Ebene 1
10
101.635200
20
97.536200
11
13.452700
21
124.178000
0
LINE
8
Ebene 1
10
13.452700
20
124.178000
11
13.452700
21
91.891800
0
LINE
8
Ebene 1
10
13.452700
20
91.891800
11
101.635000
21
91.891800
0
LINE
8
Ebene 1
10
101.635000
20
91.891800
11
101.635200
21
97.536200
0
LINE
8
Ebene 1
10
17.638800
20
88.127600
11
23.278500
21
88.127600
0
LINE
8
Ebene 1
10
23.278500
20
88.127600
11
23.278500
21
82.483200
0
LINE
8
Ebene 1
10
23.278500
20
82.483200
11
17.638800
21
82.483200
0
LINE
8
Ebene 1
10
17.638800
20
82.483200
11
17.638800
21
88.127600
0
LINE
8
Ebene 1
10
25.837420
20
88.127600
11
13.805400
21
124.178000
0
LINE
8
Ebene 1
10
13.805400
20
124.178000
11
13.805400
21
118.534000
0
LINE
8
Ebene 1
10
13.805400
20
118.534000
11
25.837400
21
118.534000
0
LINE
8
Ebene 1
10
25.837400
20
118.534000
11
25.837420
21
88.127600
0
LINE
8
Ebene 1
10
34.257230
20
88.127600
11
14.167500
21
124.178000
0
LINE
8
Ebene 1
10
14.167500
20
124.178000
11
14.167500
21
118.534000
0
LINE
8
Ebene 1
10
14.167500
20
118.534000
11
34.257200
21
118.534000
0
LINE
8
Ebene 1
10
34.257200
20
118.534000
11
34.257230
21
88.127600
0
LINE
8
Ebene 1
10
42.196890
20
88.127600
11
47.871900
21
124.178000
0
LINE
8
Ebene 1
10
47.871900
20
124.178000
11
47.871900
21
118.534000
0
LINE
8
Ebene 1
10
47.871900
20
118.534000
11
42.196900
21
118.534000
0
LINE
8
Ebene 1
10
42.196900
20
118.534000
11
42.196890
21
88.127600
0
LINE
8
Ebene 1
10
50.063920
20
88.127600
11
14.187500
21
124.178000
0
LINE
8
Ebene 1
10
14.187500
20
124.178000
11
14.187500
21
118.534000
0
LINE
8
Ebene 1
10
14.187500
20
118.534000
11
7.867030
21
118.534000
0
LINE
8
Ebene 1
10
7.867030
20
118.534000
11
50.063920
21
88.127600
0
LINE
8
Ebene 1
10
59.479420
20
88.127600
11
14.777700
21
124.178000
0
LINE
8
Ebene 1
10
14.777700
20
124.178000
11
14.777700
21
118.534000
0
LINE
8
Ebene 1
10
14.777700
20
118.534000
11
9.415500
21
118.534000
0
LINE
8
Ebene 1
10
9.415500
20
118.534000
11
59.479420
21
88.127600
0
LINE
8
Ebene 1
10
68.134360
20
88.127600
11
14.575500
21
124.178000
0
LINE
8
Ebene 1
10
14.575500
20
124.178000
11
14.575500
21
118.534000
0
LINE
8
Ebene 1
10
14.575500
20
118.534000
11
8.654940
21
118.534000
0
LINE
8
Ebene 1
10
8.654940
20
118.534000
11
68.134360
21
88.127600
0
LINE
8
Ebene 1
10
76.246980
20
88.127600
11
13.686400
21
124.178000
0
LINE
8
Ebene 1
10
13.686400
20
124.178000
11
13.686400
21
118.534000
0
LINE
8
Ebene 1
10
13.686400
20
118.534000
11
8.112620
21
118.534000
0
LINE
8
Ebene 1
10
8.112620
20
118.534000
11
76.246980
21
88.127600
0
LINE
8
Ebene 1
10
84.012790
20
88.127600
11
15.083600
21
124.178000
0
LINE
8
Ebene 1
10
15.083600
20
124.178000
11
15.083600
21
118.534000
0
LINE
8
Ebene 1
10
15.083600
20
118.534000
11
7.765810
21
118.534000
0
LINE
8
Ebene 1
10
7.765810
20
118.534000
11
84.012790
21
88.127600
0
LINE
8
Ebene 1
10
93.522580
20
88.127600
11
15.382300
21
124.178000
0
LINE
8
Ebene 1
10
15.382300
20
124.178000
11
15.382300
21
118.534000
0
LINE
8
Ebene 1
10
15.382300
20
118.534000
11
9.509790
21
118.534000
0
LINE
8
Ebene 1
10
9.509790
20
118.534000
11
93.522580
21
88.127600
0
LINE
8
Ebene 1
10
102.002090
20
88.127600
11
13.339600
21
124.178000
0
LINE
8
Ebene 1
10
13.339600
20
124.178000
11
13.339600
21
118.534000
0
LINE
8
Ebene 1
10
13.339600
20
118.534000
11
102.002000
21
118.534000
0
LINE
8
Ebene 1
10
102.002000
20
118.534000
11
102.002090
21
88.127600
0
LINE
8
Ebene 1
10
17.348500
20
79.017700
11
23.278500
21
79.017700
0
LINE
8
Ebene 1
10
23.278500
20
79.017700
11
23.278500
21
73.373400
0
LINE
8
Ebene 1
10
23.278500
20
73.373400
11
17.348500
21
73.373400
0
LINE
8
Ebene 1
10
17.348500
20
73.373400
11
17.348500
21
79.017700
0
LINE
8
Ebene 1
10
25.470570
20
79.017700
11
14.095800
21
124.178000
0
LINE
8
Ebene 1
10
14.095800
20
124.178000
11
14.095800
21
118.534000
0
LINE
8
Ebene 1
10
14.095800
20
118.534000
11
25.470500
21
118.534000
0
LINE
8
Ebene 1
10
25.470500
20
118.534000
11
25.470570
21
79.017700
0
LINE
8
Ebene 1
10
34.257270
20
79.017700
11
14.534300
21
124.178000
0
LINE
8
Ebene 1
10
14.534300
20
124.178000
11
14.534300
21
118.534000
0
LINE
8
Ebene 1
10
14.534300
20
118.534000
11
34.257200
21
118.534000
0
LINE
8
Ebene 1
10
34.257200
20
118.534000
11
34.257270
21
79.017700
0
LINE
8
Ebene 1
10
42.196930
20
79.017700
11
47.871900
21
124.178000
0
LINE
8
Ebene 1
10
47.871900
20
124.178000
11
47.871900
21
118.534000
0
LINE
8
Ebene 1
10
47.871900
20
118.534000
11
42.196900
21
118.534000
0
LINE
8
Ebene 1
10
42.196900
20
118.534000
11
42.196930
21
79.017700
0
LINE
8
Ebene 1
10
50.063960
20
79.017700
11
14.187500
21
124.178000
0
LINE
8
Ebene 1
10
14.187500
20
124.178000
11
14.187500
21
118.534000
0
LINE
8
Ebene 1
10
14.187500
20
118.534000
11
7.867030
21
118.534000
0
LINE
8
Ebene 1
10
7.867030
20
118.534000
11
50.063960
21
79.017700
0
LINE
8
Ebene 1
10
58.576480
20
79.017700
11
15.878400
21
124.178000
0
LINE
8
Ebene 1
10
15.878400
20
124.178000
11
15.878400
21
118.534000
0
LINE
8
Ebene 1
10
15.878400
20
118.534000
11
8.512520
21
118.534000
0
LINE
8
Ebene 1
10
8.512520
20
118.534000
11
58.576480
21
79.017700
0
LINE
8
Ebene 1
10
68.134400
20
79.017700
11
15.478500
21
124.178000
0
LINE
8
Ebene 1
10
15.478500
20
124.178000
11
15.478500
21
118.534000
0
LINE
8
Ebene 1
10
15.478500
20
118.534000
11
9.557920
21
118.534000
0
LINE
8
Ebene 1
10
9.557920
20
118.534000
11
68.134400
21
79.017700
0
LINE
8
Ebene 1
10
76.247020
20
79.017700
11
13.686400
21
124.178000
0
LINE
8
Ebene 1
10
13.686400
20
124.178000
11
13.686400
21
118.534000
0
LINE
8
Ebene 1
10
13.686400
20
118.534000
11
8.112620
21
118.534000
0
LINE
8
Ebene 1
10
8.112620
20
118.534000
11
76.247020
21
79.017700
0
LINE
8
Ebene 1
10
84.012830
20
79.017700
11
15.083600
21
124.178000
0
LINE
8
Ebene 1
10
15.083600
20
124.178000
11
15.083600
21
118.534000
0
LINE
8
Ebene 1
10
15.083600
20
118.534000
11
7.765810
21
118.534000
0
LINE
8
Ebene 1
10
7.765810
20
118.534000
11
84.012830
21
79.017700
0
LINE
8
Ebene 1
10
93.522620
20
79.017700
11
15.382300
21
124.178000
0
LINE
8
Ebene 1
10
15.382300
20
124.178000
11
15.382300
21
118.534000
0
LINE
8
Ebene 1
10
15.382300
20
118.534000
11
9.509790
21
118.534000
0
LINE
8
Ebene 1
10
9.509790
20
118.534000
11
93.522620
21
79.017700
0
LINE
8
Ebene 1
10
101.635240
20
79.017700
11
13.557300
21
124.178000
0
LINE
8
Ebene 1
10
13.557300
20
124.178000
11
13.557300
21
118.534000
0
LINE
8
Ebene 1
10
13.557300
20
118.534000
11
101.635000
21
118.534000
0
LINE
8
Ebene 1
10
101.635000
20
118.534000
11
101.635240
21
79.017700
0
LINE
8
Ebene 1
10
17.638800
20
69.539900
11
23.278500
21
69.539900
0
LINE
8
Ebene 1
10
23.278500
20
69.539900
11
23.278500
21
63.895400
0
LINE
8
Ebene 1
10
23.278500
20
63.895400
11
17.638800
21
63.895400
0
LINE
8
Ebene 1
10
17.638800
20
63.895400
11
17.638800
21
69.539900
0
LINE
8
Ebene 1
10
25.470530
20
69.539900
11
13.805400
21
124.178000
0
LINE
8
Ebene 1
10
13.805400
20
124.178000
11
13.805400
21
118.533000
0
LINE
8
Ebene 1
10
13.805400
20
118.533000
11
25.470500
21
118.533000
0
LINE
8
Ebene 1
10
25.470500
20
118.533000
11
25.470530
21
69.539900
0
LINE
8
Ebene 1
10
34.257230
20
69.539900
11
14.534300
21
124.178000
0
LINE
8
Ebene 1
10
14.534300
20
124.178000
11
14.534300
21
118.533000
0
LINE
8
Ebene 1
10
14.534300
20
118.533000
11
34.257200
21
118.533000
0
LINE
8
Ebene 1
10
34.257200
20
118.533000
11
34.257230
21
69.539900
0
LINE
8
Ebene 1
10
42.196890
20
69.539900
11
47.871900
21
124.178000
0
LINE
8
Ebene 1
10
47.871900
20
124.178000
11
47.871900
21
118.533000
0
LINE
8
Ebene 1
10
47.871900
20
118.533000
11
42.196900
21
118.533000
0
LINE
8
Ebene 1
10
42.196900
20
118.533000
11
42.196890
21
69.539900
0
LINE
8
Ebene 1
10
50.063920
20
69.539900
11
14.187500
21
124.178000
0
LINE
8
Ebene 1
10
14.187500
20
124.178000
11
14.187500
21
118.533000
0
LINE
8
Ebene 1
10
14.187500
20
118.533000
11
7.867030
21
118.533000
0
LINE
8
Ebene 1
10
7.867030
20
118.533000
11
50.063920
21
69.539900
0
LINE
8
Ebene 1
10
58.576440
20
69.539900
11
15.878400
21
124.178000
0
LINE
8
Ebene 1
10
15.878400
20
124.178000
11
15.878400
21
118.533000
0
LINE
8
Ebene 1
10
15.878400
20
118.533000
11
8.512520
21
118.533000
0
LINE
8
Ebene 1
10
8.512520
20
118.533000
11
58.576440
21
69.539900
0
LINE
8
Ebene 1
10
68.134360
20
69.539900
11
15.478500
21
124.178000
0
LINE
8
Ebene 1
10
15.478500
20
124.178000
11
15.478500
21
118.533000
0
LINE
8
Ebene 1
10
15.478500
20
118.533000
11
9.557920
21
118.533000
0
LINE
8
Ebene 1
10
9.557920
20
118.533000
11
68.134360
21
69.539900
0
LINE
8
Ebene 1
10
76.246980
20
69.539900
11
13.686400
21
124.178000
0
LINE
8
Ebene 1
10
13.686400
20
124.178000
11
13.686400
21
118.533000
0
LINE
8
Ebene 1
10
13.686400
20
118.533000
11
8.112620
21
118.533000
0
LINE
8
Ebene 1
10
8.112620
20
118.533000
11
76.246980
21
69.539900
0
LINE
8
Ebene 1
10
84.012790
20
70.386501
11
15.083600
21
125.025000
0
LINE
8
Ebene 1
10
15.083600
20
125.025000
11
15.083600
21
118.533000
0
LINE
8
Ebene 1
10
15.083600
20
118.533000
11
7.765810
21
118.533000
0
LINE
8
Ebene 1
10
7.765810
20
118.533000
11
84.012790
21
70.386501
0
LINE
8
Ebene 1
10
93.522580
20
69.539900
11
15.382300
21
123.331000
0
LINE
8
Ebene 1
10
15.382300
20
123.331000
11
15.382300
21
117.687000
0
LINE
8
Ebene 1
10
15.382300
20
117.687000
11
9.509790
21
117.687000
0
LINE
8
Ebene 1
10
9.509790
20
117.687000
11
93.522580
21
69.539900
0
LINE
8
Ebene 1
10
101.635200
20
69.539900
11
13.339600
21
124.178000
0
LINE
8
Ebene 1
10
13.339600
20
124.178000
11
13.339600
21
118.533000
0
LINE
8
Ebene 1
10
13.339600
20
118.533000
11
101.635000
21
118.533000
0
LINE
8
Ebene 1
10
101.635000
20
118.533000
11
101.635200
21
69.539900
0
LINE
8
Ebene 1
10
17.638800
20
60.200600
11
23.278500
21
60.200600
0
LINE
8
Ebene 1
10
23.278500
20
60.200600
11
23.278500
21
54.556200
0
LINE
8
Ebene 1
10
23.278500
20
54.556200
11
17.638800
21
54.556200
0
LINE
8
Ebene 1
10
17.638800
20
54.556200
11
17.638800
21
60.200600
0
LINE
8
Ebene 1
10
25.470530
20
60.200600
11
13.805400
21
124.178000
0
LINE
8
Ebene 1
10
13.805400
20
124.178000
11
13.805400
21
118.534000
0
LINE
8
Ebene 1
10
13.805400
20
118.534000
11
25.470500
21
118.534000
0
LINE
8
Ebene 1
10
25.470500
20
118.534000
11
25.470530
21
60.200600
0
LINE
8
Ebene 1
10
33.636240
20
60.200600
11
14.534300
21
124.178000
0
LINE
8
Ebene 1
10
14.534300
20
124.178000
11
14.534300
21
118.534000
0
LINE
8
Ebene 1
10
14.534300
20
118.534000
11
8.165710
21
118.534000
0
LINE
8
Ebene 1
10
8.165710
20
118.534000
11
33.636240
21
60.200600
0
LINE
8
Ebene 1
10
42.196890
20
60.200600
11
47.871900
21
124.178000
0
LINE
8
Ebene 1
10
47.871900
20
124.178000
11
47.871900
21
118.534000
0
LINE
8
Ebene 1
10
47.871900
20
118.534000
11
42.196900
21
118.534000
0
LINE
8
Ebene 1
10
42.196900
20
118.534000
11
42.196890
21
60.200600
0
LINE
8
Ebene 1
10
50.063920
20
60.200600
11
14.187500
21
124.178000
0
LINE
8
Ebene 1
10
14.187500
20
124.178000
11
14.187500
21
118.534000
0
LINE
8
Ebene 1
10
14.187500
20
118.534000
11
7.867030
21
118.534000
0
LINE
8
Ebene 1
10
7.867030
20
118.534000
11
50.063920
21
60.200600
0
LINE
8
Ebene 1
10
58.576440
20
60.200600
11
15.281100
21
124.178000
0
LINE
8
Ebene 1
10
15.281100
20
124.178000
11
15.281100
21
118.534000
0
LINE
8
Ebene 1
10
15.281100
20
118.534000
11
8.512520
21
118.534000
0
LINE
8
Ebene 1
10
8.512520
20
118.534000
11
58.576440
21
60.200600
0
LINE
8
Ebene 1
10
67.536990
20
60.200600
11
15.478500
21
124.178000
0
LINE
8
Ebene 1
10
15.478500
20
124.178000
11
15.478500
21
118.534000
0
LINE
8
Ebene 1
10
15.478500
20
118.534000
11
8.960550
21
118.534000
0
LINE
8
Ebene 1
10
8.960550
20
118.534000
11
67.536990
21
60.200600
0
LINE
8
Ebene 1
10
76.246980
20
60.200600
11
14.283800
21
124.178000
0
LINE
8
Ebene 1
10
14.283800
20
124.178000
11
14.283800
21
118.534000
0
LINE
8
Ebene 1
10
14.283800
20
118.534000
11
8.709990
21
118.534000
0
LINE
8
Ebene 1
10
8.709990
20
118.534000
11
76.246980
21
60.200600
0
LINE
8
Ebene 1
10
84.012790
20
60.200600
11
15.083600
21
124.178000
0
LINE
8
Ebene 1
10
15.083600
20
124.178000
11
15.083600
21
118.534000
0
LINE
8
Ebene 1
10
15.083600
20
118.534000
11
7.765810
21
118.534000
0
LINE
8
Ebene 1
10
7.765810
20
118.534000
11
84.012790
21
60.200600
0
LINE
8
Ebene 1
10
93.522580
20
60.200600
11
15.382300
21
124.178000
0
LINE
8
Ebene 1
10
15.382300
20
124.178000
11
15.382300
21
118.534000
0
LINE
8
Ebene 1
10
15.382300
20
118.534000
11
9.509790
21
118.534000
0
LINE
8
Ebene 1
10
9.509790
20
118.534000
11
93.522580
21
60.200600
0
LINE
8
Ebene 1
10
101.635200
20
60.200600
11
13.339600
21
124.178000
0
LINE
8
Ebene 1
10
13.339600
20
124.178000
11
13.339600
21
118.534000
0
LINE
8
Ebene 1
10
13.339600
20
118.534000
11
101.635000
21
118.534000
0
LINE
8
Ebene 1
10
101.635000
20
118.534000
11
101.635200
21
60.200600
0
LINE
8
Ebene 1
10
17.638800
20
50.884900
11
23.278500
21
50.884900
0
LINE
8
Ebene 1
10
23.278500
20
50.884900
11
23.278500
21
45.240500
0
LINE
8
Ebene 1
10
23.278500
20
45.240500
11
17.638800
21
45.240500
0
LINE
8
Ebene 1
10
17.638800
20
45.240500
11
17.638800
21
50.884900
0
LINE
8
Ebene 1
10
25.470530
20
50.884900
11
13.805400
21
124.178000
0
LINE
8
Ebene 1
10
13.805400
20
124.178000
11
13.805400
21
118.534000
0
LINE
8
Ebene 1
10
13.805400
20
118.534000
11
25.470500
21
118.534000
0
LINE
8
Ebene 1
10
25.470500
20
118.534000
11
25.470530
21
50.884900
0
LINE
8
Ebene 1
10
33.636240
20
50.884900
11
14.534300
21
124.178000
0
LINE
8
Ebene 1
10
14.534300
20
124.178000
11
14.534300
21
118.534000
0
LINE
8
Ebene 1
10
14.534300
20
118.534000
11
8.165710
21
118.534000
0
LINE
8
Ebene 1
10
8.165710
20
118.534000
11
33.636240
21
50.884900
0
LINE
8
Ebene 1
10
42.196890
20
50.884900
11
47.871900
21
124.178000
0
LINE
8
Ebene 1
10
47.871900
20
124.178000
11
47.871900
21
118.534000
0
LINE
8
Ebene 1
10
47.871900
20
118.534000
11
42.196900
21
118.534000
0
LINE
8
Ebene 1
10
42.196900
20
118.534000
11
42.196890
21
50.884900
0
LINE
8
Ebene 1
10
50.063920
20
50.884900
11
14.187500
21
124.178000
0
LINE
8
Ebene 1
10
14.187500
20
124.178000
11
14.187500
21
118.534000
0
LINE
8
Ebene 1
10
14.187500
20
118.534000
11
7.867030
21
118.534000
0
LINE
8
Ebene 1
10
7.867030
20
118.534000
11
50.063920
21
50.884900
0
LINE
8
Ebene 1
10
58.576440
20
50.884900
11
15.281100
21
124.178000
0
LINE
8
Ebene 1
10
15.281100
20
124.178000
11
15.281100
21
118.534000
0
LINE
8
Ebene 1
10
15.281100
20
118.534000
11
8.512520
21
118.534000
0
LINE
8
Ebene 1
10
8.512520
20
118.534000
11
58.576440
21
50.884900
0
LINE
8
Ebene 1
10
67.536990
20
50.884900
11
14.534300
21
124.178000
0
LINE
8
Ebene 1
10
14.534300
20
124.178000
11
14.534300
21
118.534000
0
LINE
8
Ebene 1
10
14.534300
20
118.534000
11
8.960550
21
118.534000
0
LINE
8
Ebene 1
10
8.960550
20
118.534000
11
67.536990
21
50.884900
0
LINE
8
Ebene 1
10
75.669650
20
50.884900
11
15.179800
21
124.178000
0
LINE
8
Ebene 1
10
15.179800
20
124.178000
11
15.179800
21
118.534000
0
LINE
8
Ebene 1
10
15.179800
20
118.534000
11
8.132660
21
118.534000
0
LINE
8
Ebene 1
10
8.132660
20
118.534000
11
75.669650
21
50.884900
0
LINE
8
Ebene 1
10
85.868350
20
50.884900
11
14.673000
21
124.178000
0
LINE
8
Ebene 1
10
14.673000
20
124.178000
11
14.673000
21
118.534000
0
LINE
8
Ebene 1
10
14.673000
20
118.534000
11
10.198700
21
118.534000
0
LINE
8
Ebene 1
10
10.198700
20
118.534000
11
85.868350
21
50.884900
0
LINE
8
Ebene 1
10
93.522630
20
50.884900
11
13.526800
21
124.178000
0
LINE
8
Ebene 1
10
13.526800
20
124.178000
11
13.526800
21
118.534000
0
LINE
8
Ebene 1
10
13.526800
20
118.534000
11
7.654280
21
118.534000
0
LINE
8
Ebene 1
10
7.654280
20
118.534000
11
93.522630
21
50.884900
0
LINE
8
Ebene 1
10
101.635250
20
50.884900
11
13.339600
21
124.178000
0
LINE
8
Ebene 1
10
13.339600
20
124.178000
11
13.339600
21
118.534000
0
LINE
8
Ebene 1
10
13.339600
20
118.534000
11
101.635000
21
118.534000
0
LINE
8
Ebene 1
10
101.635000
20
118.534000
11
101.635250
21
50.884900
0
LINE
8
Ebene 1
10
17.638850
20
41.532770
11
-78.356700
21
114.826000
0
LINE
8
Ebene 1
10
-78.356700
20
114.826000
11
-78.356700
21
109.181000
0
LINE
8
Ebene 1
10
-78.356700
20
109.181000
11
17.638800
21
109.181000
0
LINE
8
Ebene 1
10
17.638800
20
109.181000
11
17.638850
21
41.532770
0
LINE
8
Ebene 1
10
25.470580
20
41.532770
11
13.805400
21
124.178000
0
LINE
8
Ebene 1
10
13.805400
20
124.178000
11
13.805400
21
118.534000
0
LINE
8
Ebene 1
10
13.805400
20
118.534000
11
25.470500
21
118.534000
0
LINE
8
Ebene 1
10
25.470500
20
118.534000
11
25.470580
21
41.532770
0
LINE
8
Ebene 1
10
34.003280
20
41.532770
11
14.534300
21
124.178000
0
LINE
8
Ebene 1
10
14.534300
20
124.178000
11
14.534300
21
118.534000
0
LINE
8
Ebene 1
10
14.534300
20
118.534000
11
34.003200
21
118.534000
0
LINE
8
Ebene 1
10
34.003200
20
118.534000
11
34.003280
21
41.532770
0
LINE
8
Ebene 1
10
42.196940
20
41.532770
11
47.871900
21
124.178000
0
LINE
8
Ebene 1
10
47.871900
20
124.178000
11
47.871900
21
118.534000
0
LINE
8
Ebene 1
10
47.871900
20
118.534000
11
42.196900
21
118.534000
0
LINE
8
Ebene 1
10
42.196900
20
118.534000
11
42.196940
21
41.532770
0
LINE
8
Ebene 1
10
50.063970
20
41.532770
11
14.187500
21
124.178000
0
LINE
8
Ebene 1
10
14.187500
20
124.178000
11
14.187500
21
118.534000
0
LINE
8
Ebene 1
10
14.187500
20
118.534000
11
7.867030
21
118.534000
0
LINE
8
Ebene 1
10
7.867030
20
118.534000
11
50.063970
21
41.532770
0
LINE
8
Ebene 1
10
58.576490
20
41.532770
11
15.281100
21
124.178000
0
LINE
8
Ebene 1
10
15.281100
20
124.178000
11
15.281100
21
118.534000
0
LINE
8
Ebene 1
10
15.281100
20
118.534000
11
8.512520
21
118.534000
0
LINE
8
Ebene 1
10
8.512520
20
118.534000
11
58.576490
21
41.532770
0
LINE
8
Ebene 1
10
67.537040
20
41.532770
11
14.534300
21
124.178000
0
LINE
8
Ebene 1
10
14.534300
20
124.178000
11
14.534300
21
118.534000
0
LINE
8
Ebene 1
10
14.534300
20
118.534000
11
8.960550
21
118.534000
0
LINE
8
Ebene 1
10
8.960550
20
118.534000
11
67.537040
21
41.532770
0
LINE
8
Ebene 1
10
75.585030
20
41.532770
11
15.179800
21
124.178000
0
LINE
8
Ebene 1
10
15.179800
20
124.178000
11
15.179800
21
118.534000
0
LINE
8
Ebene 1
10
15.179800
20
118.534000
11
75.585000
21
118.534000
0
LINE
8
Ebene 1
10
75.585000
20
118.534000
11
75.585030
21
41.532770
0
LINE
8
Ebene 1
10
84.908890
20
41.532770
11
15.745600
21
124.178000
0
LINE
8
Ebene 1
10
15.745600
20
124.178000
11
15.745600
21
118.534000
0
LINE
8
Ebene 1
10
15.745600
20
118.534000
11
9.323860
21
118.534000
0
LINE
8
Ebene 1
10
9.323860
20
118.534000
11
84.908890
21
41.532770
0
LINE
8
Ebene 1
10
93.522630
20
41.532770
11
14.486200
21
124.178000
0
LINE
8
Ebene 1
10
14.486200
20
124.178000
11
14.486200
21
118.534000
0
LINE
8
Ebene 1
10
14.486200
20
118.534000
11
8.613740
21
118.534000
0
LINE
8
Ebene 1
10
8.613740
20
118.534000
11
93.522630
21
41.532770
0
LINE
8
Ebene 1
10
101.635250
20
41.532770
11
13.339600
21
124.178000
0
LINE
8
Ebene 1
10
13.339600
20
124.178000
11
13.339600
21
118.534000
0
LINE
8
Ebene 1
10
13.339600
20
118.534000
11
101.635000
21
118.534000
0
LINE
8
Ebene 1
10
101.635000
20
118.534000
11
101.635250
21
41.532770
0
LINE
8
Ebene 1
10
17.638800
20
32.180600
11
23.278500
21
32.180600
0
LINE
8
Ebene 1
10
23.278500
20
32.180600
11
23.278500
21
26.536300
0
LINE
8
Ebene 1
10
23.278500
20
26.536300
11
17.638800
21
26.536300
0
LINE
8
Ebene 1
10
17.638800
20
26.536300
11
17.638800
21
32.180600
0
LINE
8
Ebene 1
10
26.119640
20
32.180600
11
13.805400
21
124.178000
0
LINE
8
Ebene 1
10
13.805400
20
124.178000
11
13.805400
21
118.534000
0
LINE
8
Ebene 1
10
13.805400
20
118.534000
11
26.119600
21
118.534000
0
LINE
8
Ebene 1
10
26.119600
20
118.534000
11
26.119640
21
32.180600
0
LINE
8
Ebene 1
10
34.144340
20
32.180600
11
13.885200
21
124.178000
0
LINE
8
Ebene 1
10
13.885200
20
124.178000
11
13.885200
21
118.534000
0
LINE
8
Ebene 1
10
13.885200
20
118.534000
11
34.144300
21
118.534000
0
LINE
8
Ebene 1
10
34.144300
20
118.534000
11
34.144340
21
32.180600
0
LINE
8
Ebene 1
10
42.196880
20
32.180600
11
47.871900
21
124.178000
0
LINE
8
Ebene 1
10
47.871900
20
124.178000
11
47.871900
21
118.534000
0
LINE
8
Ebene 1
10
47.871900
20
118.534000
11
42.196900
21
118.534000
0
LINE
8
Ebene 1
10
42.196900
20
118.534000
11
42.196880
21
32.180600
0
LINE
8
Ebene 1
10
50.063910
20
32.180600
11
14.187500
21
124.178000
0
LINE
8
Ebene 1
10
14.187500
20
124.178000
11
14.187500
21
118.534000
0
LINE
8
Ebene 1
10
14.187500
20
118.534000
11
7.867030
21
118.534000
0
LINE
8
Ebene 1
10
7.867030
20
118.534000
11
50.063910
21
32.180600
0
LINE
8
Ebene 1
10
58.576430
20
32.180600
11
15.281100
21
124.178000
0
LINE
8
Ebene 1
10
15.281100
20
124.178000
11
15.281100
21
118.534000
0
LINE
8
Ebene 1
10
15.281100
20
118.534000
11
8.512520
21
118.534000
0
LINE
8
Ebene 1
10
8.512520
20
118.534000
11
58.576430
21
32.180600
0
LINE
8
Ebene 1
10
67.536980
20
32.180600
11
14.534300
21
124.178000
0
LINE
8
Ebene 1
10
14.534300
20
124.178000
11
14.534300
21
118.534000
0
LINE
8
Ebene 1
10
14.534300
20
118.534000
11
8.960550
21
118.534000
0
LINE
8
Ebene 1
10
8.960550
20
118.534000
11
67.536980
21
32.180600
0
LINE
8
Ebene 1
10
75.302790
20
32.180600
11
15.179800
21
124.178000
0
LINE
8
Ebene 1
10
15.179800
20
124.178000
11
15.179800
21
118.534000
0
LINE
8
Ebene 1
10
15.179800
20
118.534000
11
7.765810
21
118.534000
0
LINE
8
Ebene 1
10
7.765810
20
118.534000
11
75.302790
21
32.180600
0
LINE
8
Ebene 1
10
84.908830
20
32.999089
11
16.027800
21
124.996000
0
LINE
8
Ebene 1
10
16.027800
20
124.996000
11
16.027800
21
118.534000
0
LINE
8
Ebene 1
10
16.027800
20
118.534000
11
9.606040
21
118.534000
0
LINE
8
Ebene 1
10
9.606040
20
118.534000
11
84.908830
21
32.999089
0
LINE
8
Ebene 1
10
93.522570
20
32.180600
11
14.486200
21
123.360000
0
LINE
8
Ebene 1
10
14.486200
20
123.360000
11
14.486200
21
117.715000
0
LINE
8
Ebene 1
10
14.486200
20
117.715000
11
8.613740
21
117.715000
0
LINE
8
Ebene 1
10
8.613740
20
117.715000
11
93.522570
21
32.180600
0
LINE
8
Ebene 1
10
101.635190
20
32.180600
11
13.339600
21
124.178000
0
LINE
8
Ebene 1
10
13.339600
20
124.178000
11
13.339600
21
118.534000
0
LINE
8
Ebene 1
10
13.339600
20
118.534000
11
101.635000
21
118.534000
0
LINE
8
Ebene 1
10
101.635000
20
118.534000
11
101.635190
21
32.180600
0
LINE
8
Ebene 1
10
17.638790
20
22.752040
11
-78.356700
21
114.749000
0
LINE
8
Ebene 1
10
-78.356700
20
114.749000
11
-78.356700
21
109.105000
0
LINE
8
Ebene 1
10
-78.356700
20
109.105000
11
17.638800
21
109.105000
0
LINE
8
Ebene 1
10
17.638800
20
109.105000
11
17.638790
21
22.752040
0
LINE
8
Ebene 1
10
25.752740
20
22.752040
11
13.805400
21
124.178000
0
LINE
8
Ebene 1
10
13.805400
20
124.178000
11
13.805400
21
118.534000
0
LINE
8
Ebene 1
10
13.805400
20
118.534000
11
25.752800
21
118.534000
0
LINE
8
Ebene 1
10
25.752800
20
118.534000
11
25.752740
21
22.752040
0
LINE
8
Ebene 1
10
33.636230
20
22.752040
11
14.252100
21
124.178000
0
LINE
8
Ebene 1
10
14.252100
20
124.178000
11
14.252100
21
118.534000
0
LINE
8
Ebene 1
10
14.252100
20
118.534000
11
7.883490
21
118.534000
0
LINE
8
Ebene 1
10
7.883490
20
118.534000
11
33.636230
21
22.752040
0
LINE
8
Ebene 1
10
42.196880
20
22.752040
11
47.871900
21
124.178000
0
LINE
8
Ebene 1
10
47.871900
20
124.178000
11
47.871900
21
118.534000
0
LINE
8
Ebene 1
10
47.871900
20
118.534000
11
42.196900
21
118.534000
0
LINE
8
Ebene 1
10
42.196900
20
118.534000
11
42.196880
21
22.752040
0
LINE
8
Ebene 1
10
50.063910
20
22.752040
11
14.187500
21
124.178000
0
LINE
8
Ebene 1
10
14.187500
20
124.178000
11
14.187500
21
118.534000
0
LINE
8
Ebene 1
10
14.187500
20
118.534000
11
7.867030
21
118.534000
0
LINE
8
Ebene 1
10
7.867030
20
118.534000
11
50.063910
21
22.752040
0
LINE
8
Ebene 1
10
58.576430
20
22.752040
11
15.281100
21
124.178000
0
LINE
8
Ebene 1
10
15.281100
20
124.178000
11
15.281100
21
118.534000
0
LINE
8
Ebene 1
10
15.281100
20
118.534000
11
8.512520
21
118.534000
0
LINE
8
Ebene 1
10
8.512520
20
118.534000
11
58.576430
21
22.752040
0
LINE
8
Ebene 1
10
67.536980
20
22.752040
11
14.901200
21
124.178000
0
LINE
8
Ebene 1
10
14.901200
20
124.178000
11
14.901200
21
118.534000
0
LINE
8
Ebene 1
10
14.901200
20
118.534000
11
8.960550
21
118.534000
0
LINE
8
Ebene 1
10
8.960550
20
118.534000
11
67.536980
21
22.752040
0
LINE
8
Ebene 1
10
75.895420
20
22.752040
11
15.179800
21
124.178000
0
LINE
8
Ebene 1
10
15.179800
20
124.178000
11
15.179800
21
118.534000
0
LINE
8
Ebene 1
10
15.179800
20
118.534000
11
75.895400
21
118.534000
0
LINE
8
Ebene 1
10
75.895400
20
118.534000
11
75.895420
21
22.752040
0
LINE
8
Ebene 1
10
84.908840
20
22.752040
11
15.435100
21
124.178000
0
LINE
8
Ebene 1
10
15.435100
20
124.178000
11
15.435100
21
118.534000
0
LINE
8
Ebene 1
10
15.435100
20
118.534000
11
9.013420
21
118.534000
0
LINE
8
Ebene 1
10
9.013420
20
118.534000
11
84.908840
21
22.752040
0
LINE
8
Ebene 1
10
93.522580
20
22.752040
11
14.486200
21
124.178000
0
LINE
8
Ebene 1
10
14.486200
20
124.178000
11
14.486200
21
118.534000
0
LINE
8
Ebene 1
10
14.486200
20
118.534000
11
8.613740
21
118.534000
0
LINE
8
Ebene 1
10
8.613740
20
118.534000
11
93.522580
21
22.752040
0
LINE
8
Ebene 1
10
101.635200
20
22.752040
11
13.339600
21
124.178000
0
LINE
8
Ebene 1
10
13.339600
20
124.178000
11
13.339600
21
118.534000
0
LINE
8
Ebene 1
10
13.339600
20
118.534000
11
101.635000
21
118.534000
0
LINE
8
Ebene 1
10
101.635000
20
118.534000
11
101.635200
21
22.752040
0
LINE
8
Ebene 1
10
19.755500
20
10.442500
11
56.444400
21
10.442494
0
LINE
8
Ebene 1
10
56.444400
20
10.442494
11
56.444400
21
6.209210
0
LINE
8
Ebene 1
10
56.444400
20
6.209210
11
105.833200
21
6.209204
0
LINE
8
Ebene 1
10
105.833200
20
6.209204
11
105.833000
21
1.975870
0
LINE
8
Ebene 1
10
105.833000
20
1.975870
11
87.488800
21
1.975870
0
LINE
8
Ebene 1
10
87.488800
20
1.975870
11
87.488800
21
1.411430
0
LINE
8
Ebene 1
10
87.488800
20
1.411430
11
28.665000
21
1.411438
0
LINE
8
Ebene 1
10
28.665000
20
1.411438
11
28.665000
21
1.411430
0
LINE
8
Ebene 1
10
28.665000
20
1.411430
11
19.755500
21
1.411430
0
LINE
8
Ebene 1
10
19.755500
20
1.411430
11
19.755500
21
10.442500
0
LINE
8
Ebene 1
10
4.233200
20
11.289135
11
-8.466710
21
125.025000
0
LINE
8
Ebene 1
10
-8.466710
20
125.025000
11
-8.466710
21
117.969000
0
LINE
8
Ebene 1
10
-8.466710
20
117.969000
11
4.233280
21
117.969000
0
LINE
8
Ebene 1
10
4.233280
20
117.969000
11
4.233200
21
11.289135
0
LINE
8
Ebene 1
10
112.889200
20
11.289135
11
115.711000
21
124.178000
0
LINE
8
Ebene 1
10
115.711000
20
124.178000
11
115.711000
21
117.122000
0
LINE
8
Ebene 1
10
115.711000
20
117.122000
11
108.656000
21
117.122000
0
LINE
8
Ebene 1
10
108.656000
20
117.122000
11
112.889200
21
11.289135
 0 
ENDSEC
 0 
EOF