<?xml version="1.0" encoding="UTF-8" standalone="no"?>
<svg
   xmlns:dc="http://purl.org/dc/elements/1.1/"
   xmlns:cc="http://creativecommons.org/ns#"
   xmlns:rdf="http://www.w3.org/1999/02/22-rdf-syntax-ns#"
   xmlns:svg="http://www.w3.org/2000/svg"
   xmlns="http://www.w3.org/2000/svg"
   xmlns:sodipodi="http://sodipodi.sourceforge.net/DTD/sodipodi-0.dtd"
   xmlns:inkscape="http://www.inkscape.org/namespaces/inkscape"
   width="450mm"
   height="450mm"
   viewBox="0 0 450 450"
   version="1.1"
   id="svg8"
   inkscape:version="1.0.1 (3bc2e813f5, 2020-09-07)"
   sodipodi:docname="QLock_Cover_Vertikal_inside.svg">
  <defs
     id="defs2">
    <rect
       id="rect963"
       height="190.5"
       width="137.58333"
       y="47.625"
       x="-195.79167" />
    <rect
       id="rect87"
       height="105.83333"
       width="121.70833"
       y="0"
       x="-254" />
    <rect
       id="rect79"
       height="15.875"
       width="84.666664"
       y="58.208332"
       x="68.791664" />
    <rect
       id="rect65"
       height="174.625"
       width="158.75"
       y="68.791664"
       x="74.083336" />
    <rect
       id="rect59"
       height="174.625"
       width="111.125"
       y="84.666664"
       x="89.958336" />
    <rect
       id="rect53"
       height="47.625"
       width="42.333332"
       y="206.375"
       x="179.91667" />
  </defs>
  <sodipodi:namedview
     id="base"
     pagecolor="#ffffff"
     bordercolor="#666666"
     borderopacity="1.0"
     inkscape:pageopacity="0.0"
     inkscape:pageshadow="2"
     inkscape:zoom="1.0526674"
     inkscape:cx="937.03649"
     inkscape:cy="1451.1921"
     inkscape:document-units="mm"
     inkscape:current-layer="layer1"
     inkscape:document-rotation="0"
     showgrid="false"
     inkscape:window-width="2400"
     inkscape:window-height="1271"
     inkscape:window-x="2391"
     inkscape:window-y="-9"
     inkscape:window-maximized="1" />
  <metadata
     id="metadata5">
    <rdf:RDF>
      <cc:Work
         rdf:about="">
        <dc:format>image/svg+xml</dc:format>
        <dc:type
           rdf:resource="http://purl.org/dc/dcmitype/StillImage" />
        <dc:title />
      </cc:Work>
    </rdf:RDF>
  </metadata>
  <g
     inkscape:label="Ebene 1"
     inkscape:groupmode="layer"
     id="layer1">
    <path
       style="fill:#000000;fill-opacity:0.517588;stroke-width:0.264583"
       d="M 0,0 V 449.99991 H 449.99991 V 0 Z M 220,5.000212 H 340 V 20 H 220 Z M 19.999813,19.999813 H 44.999835 V 44.999835 H 19.999813 Z m 385.000267,0 h 25.00003 V 44.999835 H 405.00008 Z M 67.499756,66.178905 H 86.382999 V 86.179236 H 67.499756 Z m 29.050244,0 h 19.86667 V 86.179236 H 96.55 Z m 28.734,0 h 21.4657 V 86.179236 H 125.284 Z m 29.23266,0 H 174.625 v 20.000331 h -20.10834 z m 27.87531,0 h 22.39553 v 20.000331 h -22.39553 z m 30.1625,0 h 25.74106 v 20.000331 h -25.74106 z m 33.50803,0 h 21.33719 V 86.179236 H 246.0625 Z m 29.10416,0 h 19.74969 v 20.000331 h -19.74969 z m 27.51667,-2.499918 h 25.92917 v 22.500249 h -25.92917 z m 33.69614,2.499918 h 20.80803 v 20.000331 h -20.80803 z m 28.74553,0 h 18.52083 V 86.179236 H 365.125 Z M 67.499756,99.400134 H 86.382999 V 119.39995 H 67.499756 Z m 29.050244,0 h 19.86667 V 119.39995 H 96.55 Z m 27.63363,0 h 22.56607 v 19.999816 h -22.56607 z m 30.33303,0 H 174.625 v 19.999816 h -20.10834 z m 27.87531,0 h 22.39553 v 19.999816 h -22.39553 z m 30.1625,0 h 25.74106 v 1.349786 h 0.35863 v 18.65003 h -26.09969 z m 33.86666,0 h 20.97856 v 19.999816 h -20.97856 z m 28.74553,0 h 19.74969 v 19.999816 h -19.74969 z m 29.61635,0 h 22.929 v 19.999816 h -22.929 z m 32.19598,0 H 354.887 v 19.999816 h -17.90801 z m 28.14601,0 h 19.52101 V 119.39995 H 365.125 Z M 67.499756,132.73763 h 19.983275 v 19.99982 H 67.499756 Z m 29.050244,0 h 19.86667 v 19.99982 H 96.55 Z m 29.834,0 h 20.3657 v 19.99982 H 126.384 Z m 28.13266,0 H 174.625 v 19.99982 h -20.10834 z m 27.87531,0 h 22.39553 v 19.99982 h -22.39553 z m 33.36203,0 h 19 v 19.99982 h -19 z m 30.66713,0 h 20.97856 v 19.99982 h -20.97856 z m 28.74553,0 h 19.74969 v 19.99982 h -19.74969 z m 27.51667,0 h 25.92917 v 19.99982 h -25.92917 z m 33.69614,0 h 20.80803 v 19.99982 h -20.80803 z m 30.04553,0 h 17.22083 v 19.99982 H 366.425 Z M 66.471,165.0168 h 21.012031 v 19.99981 H 66.471 Z m 28.778999,0 h 21.166671 v 19.99981 H 95.249999 Z m 31.134001,0 h 20.3657 v 19.99981 H 126.384 Z m 28.13266,0 H 174.625 v 19.99981 h -20.10834 z m 27.87531,0 h 22.39553 v 19.99981 h -22.39553 z m 30.1625,0 h 26.09969 v 19.99981 h -26.09969 z m 33.86666,0 h 20.97856 v 19.99981 h -20.97856 z m 28.74553,0 h 19.74969 v 19.99981 h -19.74969 z m 27.51667,0 h 25.92917 v 19.99981 h -25.92917 z m 33.69614,0 h 20.80803 v 19.99981 h -20.80803 z m 28.74553,0 h 19.29201 v 19.99981 H 365.125 Z M 67.499756,198.59976 h 19.983275 v 20.00033 H 67.499756 Z m 27.750243,0 h 21.166671 v 20.00033 H 95.249999 Z m 31.134001,0 h 20.3657 v 20.00033 H 126.384 Z m 28.13266,0 H 174.625 v 20.00033 h -20.10834 z m 27.87531,0 h 22.39553 v 20.00033 h -22.39553 z m 30.1625,0 h 26.09969 v 20.00033 h -26.09969 z m 33.86666,0 h 20.97856 v 20.00033 h -20.97856 z m 28.74553,0 h 19.74969 v 20.00033 h -19.74969 z m 27.51667,-2.99977 h 25.92917 v 23.0001 h -25.92917 z m 33.69614,2.99977 h 20.80803 v 20.00033 h -20.80803 z m 28.74553,0 h 18.52083 v 20.00033 H 365.125 Z M 67.499756,231.6918 h 19.983275 v 19.99981 H 67.499756 Z m 27.750243,0 h 21.166671 v 19.99981 H 95.249999 Z m 28.933631,0 h 22.56607 v 19.99981 h -22.56607 z m 30.33303,0 H 174.625 v 19.99981 h -20.10834 z m 27.87531,0 h 22.39553 v 19.99981 h -22.39553 z m 30.1625,0 h 23.98303 v 19.99981 h -23.98303 z m 31.75,0 h 23.09522 v 19.99981 h -23.09522 z m 30.86219,0 h 19.74969 v 19.99981 h -19.74969 z m 27.51667,0 h 25.92917 v 19.99981 h -25.92917 z m 33.69614,0 h 20.80803 v 19.99981 h -20.80803 z m 28.74553,0 h 18.52083 v 19.99981 H 365.125 Z M 67.499756,264.70012 h 19.983275 v 19.9998 H 67.499756 Z m 27.750243,0 h 21.166671 v 19.9998 H 95.249999 Z m 28.933631,0 h 22.56607 v 19.9998 h -22.56607 z m 30.33303,0 H 174.625 v 19.9998 h -20.10834 z m 27.87531,0 h 22.39553 v 19.9998 h -22.39553 z m 30.1625,0 h 23.98303 v 19.9998 h -23.98303 z m 31.75,0 h 19.74969 v 19.9998 h -19.74969 z m 28.81654,0 h 24.97034 v 19.9998 h -24.97034 z m 36.13698,0 h 15.85402 v 19.9998 h -15.85402 z m 27.12148,0 h 20.80803 v 19.9998 h -20.80803 z m 28.74553,0 h 18.52083 v 19.9998 H 365.125 Z m -297.625244,33.1375 h 19.983275 v 19.99983 H 67.499756 Z m 27.750243,0 h 21.166671 v 19.99983 H 95.249999 Z m 30.234001,0 h 21.2657 v 19.99983 H 125.484 Z m 29.03266,0 H 174.625 v 19.99983 h -20.10834 z m 27.87531,0 h 22.39553 v 19.99983 h -22.39553 z m 30.1625,0 h 23.98303 v 19.99983 h -23.98303 z m 31.75,0 h 19.74969 v 19.99983 h -19.74969 z m 28.51653,0 h 25.27035 v 19.99983 H 272.821 Z m 33.03733,0 h 22.75417 v 19.99983 h -22.75417 z m 30.52114,0 h 20.80803 v 19.99983 h -20.80803 z m 28.74553,0 h 18.52083 v 19.99983 H 365.125 Z M 67.499756,330.97515 h 19.983275 v 19.9998 H 67.499756 Z m 30.050245,0 h 18.866669 v 19.9998 H 97.550001 Z m 28.433999,0 h 20.7657 v 19.9998 H 125.984 Z m 28.53266,0 H 174.625 v 19.9998 h -20.10834 z m 27.87531,0 h 22.39553 v 19.9998 h -22.39553 z m 30.1625,0 h 23.98303 v 19.9998 h -23.98303 z m 31.75,0 h 19.74969 v 19.9998 h -19.74969 z m 27.51667,0 h 26.27021 v 19.9998 h -26.27021 z m 34.03719,-2.90016 h 22.75417 v 22.89996 h -22.75417 z m 30.52114,2.90016 h 20.80803 v 19.9998 h -20.80803 z m 28.74553,0 h 18.52083 v 19.9998 H 365.125 Z m -297.625244,33.4083 h 19.983275 v 19.9998 H 67.499756 Z m 28.750243,0 h 20.166671 v 19.9998 H 96.249999 Z m 27.933631,0 h 22.56607 v 19.9998 h -22.56607 z m 30.33303,0 H 174.625 v 19.9998 h -20.10834 z m 27.87531,0 h 22.39553 v 19.9998 h -22.39553 z m 30.1625,0 h 23.98303 v 19.9998 h -23.98303 z m 31.75,0 h 21.04954 v 19.9998 h -21.04954 z m 29.61653,0 h 24.17035 v 19.9998 H 273.921 Z m 31.93733,0 h 22.75417 v 19.9998 h -22.75417 z m 30.52114,0 h 20.80803 v 19.9998 h -20.80803 z m 28.74553,0 h 18.52083 v 19.9998 H 365.125 Z M 75,407.99997 l 130,2e-5 v 17 l 175,2e-5 v 17.99998 L 340,443 v -3 l -265,-3e-5 z m -55.000187,-2.99989 h 25.000022 v 25.00003 H 19.999813 Z m 385.000267,0 h 25.00003 v 25.00003 h -25.00003 z"
       id="rect70"
       inkscape:connector-curvature="0"
       sodipodi:nodetypes="ccccccccccccccccccccccccccccccccccccccccccccccccccccccccccccccccccccccccccccccccccccccccccccccccccccccccccccccccccccccccccccccccccccccccccccccccccccccccccccccccccccccccccccccccccccccccccccccccccccccccccccccccccccccccccccccccccccccccccccccccccccccccccccccccccccccccccccccccccccccccccccccccccccccccccccccccccccccccccccccccccccccccccccccccccccccccccccccccccccccccccccccccccccccccccccccccccccccccccccccccccccccccccccccccccccccccccccccccccccccccccccccccccccccccccccccccccccccccccccccccccccccccccccccccccccccccccccccccccccccccccccccccccccccccccccccccccccccccccccccccccccccccccccccccccccccccccccccc"
       inkscape:export-xdpi="96"
       inkscape:export-ydpi="96" />
    <path
       style="fill:none;stroke:#ff0000;stroke-width:0.264583px;stroke-linecap:butt;stroke-linejoin:miter;stroke-opacity:1"
       d="M 0,0 449.99991,449.99991"
       id="path854" />
    <path
       style="fill:none;stroke:#ff0000;stroke-width:0.264583px;stroke-linecap:butt;stroke-linejoin:miter;stroke-opacity:1"
       d="M 0,449.99991 449.99991,0"
       id="path856" />
  </g>
</svg>
